<?xml version="1.0" encoding="UTF-8"?><svg xmlns="http://www.w3.org/2000/svg" xmlns:xlink="http://www.w3.org/1999/xlink" width="1680" zoomAndPan="magnify" viewBox="0 0 1680 944.999993" height="944.999993" preserveAspectRatio="xMidYMid meet" version="1.0"><rect x="-168" width="2016" fill="rgb(100%, 100%, 100%)" y="-94.499999" height="1133.999992" fill-opacity="1"/><rect x="-168" width="2016" fill="rgb(100%, 100%, 100%)" y="-94.499999" height="1133.999992" fill-opacity="1"/><rect x="-168" width="2016" fill="rgb(96.859741%, 96.859741%, 96.859741%)" y="-94.499999" height="1133.999992" fill-opacity="1"/><path fill="rgb(10.198975%, 13.328552%, 21.958923%)" d="M 1595.945312 813.289062 C 1464.101562 791.445312 1330.449219 773.761719 1196.566406 787.285156 C 1067.183594 800.355469 948.8125 865.113281 818.574219 871.808594 C 686.457031 878.535156 553.5 857.457031 424.9375 829.917969 C 208.917969 783.921875 39.441406 847.660156 -67.289062 912.222656 L -62.671875 1187.570312 L 1815.0625 1156.085938 L 1810 854.058594 C 1739.464844 836.820312 1666.761719 824.882812 1595.945312 813.289062 Z M 1595.945312 813.289062 " fill-opacity="1" fill-rule="nonzero"/><path fill="rgb(49.01886%, 63.529968%, 66.268921%)" d="M 1612.253906 830.539062 C 1480.410156 808.691406 1346.757812 791.011719 1212.875 804.53125 C 1083.496094 817.601562 965.121094 882.359375 834.882812 889.054688 C 702.765625 895.78125 569.808594 874.707031 441.25 847.164062 C 225.226562 801.171875 55.75 864.90625 -50.980469 929.46875 L -46.363281 1204.816406 L 1831.375 1173.332031 L 1826.308594 871.304688 C 1755.773438 854.070312 1683.070312 842.132812 1612.253906 830.539062 Z M 1612.253906 830.539062 " fill-opacity="1" fill-rule="nonzero"/><path fill="rgb(10.198975%, 13.328552%, 21.958923%)" d="M 1612.253906 849.890625 C 1480.410156 828.042969 1346.757812 810.363281 1212.875 823.882812 C 1083.496094 836.953125 965.121094 901.714844 834.882812 908.40625 C 702.765625 915.132812 569.808594 894.058594 441.25 866.519531 C 225.226562 820.523438 55.75 884.257812 -50.980469 948.820312 L -46.363281 1224.167969 L 1831.375 1192.683594 L 1826.308594 890.65625 C 1755.773438 873.421875 1683.070312 861.484375 1612.253906 849.890625 Z M 1612.253906 849.890625 " fill-opacity="1" fill-rule="nonzero"/><path fill="rgb(96.859741%, 96.859741%, 96.859741%)" d="M 1612.253906 876.371094 C 1480.410156 854.523438 1346.757812 836.84375 1212.875 850.363281 C 1083.496094 863.433594 965.121094 928.191406 834.882812 934.886719 C 702.765625 941.613281 569.808594 920.539062 441.25 892.996094 C 225.226562 847.003906 55.75 910.738281 -50.980469 975.300781 L -46.363281 1250.648438 L 1831.375 1219.164062 L 1826.308594 917.136719 C 1755.773438 899.902344 1683.070312 887.964844 1612.253906 876.371094 Z M 1612.253906 876.371094 " fill-opacity="1" fill-rule="nonzero"/></svg>