<svg xmlns="http://www.w3.org/2000/svg" xmlns:xlink="http://www.w3.org/1999/xlink" width="2240" zoomAndPan="magnify" viewBox="0 0 1680 944.999993" height="1260" preserveAspectRatio="xMidYMid meet" version="1.0"><defs><clipPath id="d07c6a2737"><path d="M 0 927.417969 L 1680 927.417969 L 1680 936.332031 L 0 936.332031 Z M 0 927.417969 " clip-rule="nonzero"/></clipPath><clipPath id="f9bac09c11"><path d="M 0 918.5 L 1680 918.5 L 1680 927.417969 L 0 927.417969 Z M 0 918.5 " clip-rule="nonzero"/></clipPath><clipPath id="af079c90c9"><path d="M 0.75 935.582031 L 1680 935.582031 L 1680 944.5 L 0.75 944.5 Z M 0.75 935.582031 " clip-rule="nonzero"/></clipPath></defs><rect x="-168" width="2016" fill="#ffffff" y="-94.499999" height="1133.999992" fill-opacity="1"/><rect x="-168" width="2016" fill="#ffffff" y="-94.499999" height="1133.999992" fill-opacity="1"/><rect x="-168" width="2016" fill="#f7f7f7" y="-94.499999" height="1133.999992" fill-opacity="1"/><g clip-path="url(#d07c6a2737)"><path fill="#7da2a9" d="M 0 927.417969 L 1687.710938 927.417969 L 1687.710938 936.277344 L 0 936.277344 Z M 0 927.417969 " fill-opacity="1" fill-rule="nonzero"/></g><g clip-path="url(#f9bac09c11)"><path fill="#1a2238" d="M 0 918.5 L 1687.710938 918.5 L 1687.710938 927.359375 L 0 927.359375 Z M 0 918.5 " fill-opacity="1" fill-rule="nonzero"/></g><g clip-path="url(#af079c90c9)"><path fill="#1a2238" d="M 0.75 935.582031 L 1688.460938 935.582031 L 1688.460938 944.441406 L 0.75 944.441406 Z M 0.75 935.582031 " fill-opacity="1" fill-rule="nonzero"/></g></svg>