<?xml version="1.0" encoding="UTF-8"?><svg xmlns="http://www.w3.org/2000/svg" xmlns:xlink="http://www.w3.org/1999/xlink" width="810" zoomAndPan="magnify" viewBox="0 0 810 809.999993" height="809.999993" preserveAspectRatio="xMidYMid meet" version="1.0"><path fill="rgb(49.01886%, 63.529968%, 66.268921%)" d="M 769.5625 420.140625 L 630.761719 281.363281 C 626.996094 277.597656 621.890625 275.484375 616.566406 275.484375 L 503.046875 275.484375 C 494.941406 275.484375 487.621094 280.375 484.515625 287.867188 C 481.410156 295.371094 483.128906 303.996094 488.859375 309.746094 L 613.472656 434.328125 L 488.859375 558.925781 C 483.121094 564.660156 481.40625 573.277344 484.515625 580.78125 C 487.621094 588.277344 494.941406 593.171875 503.046875 593.171875 L 616.566406 593.171875 C 621.890625 593.171875 626.996094 591.058594 630.761719 587.289062 L 769.5625 448.511719 C 773.320312 444.75 775.433594 439.652344 775.433594 434.328125 C 775.433594 429.003906 773.3125 423.898438 769.5625 420.140625 Z M 769.5625 420.140625 " fill-opacity="1" fill-rule="nonzero"/><path fill="rgb(36.079407%, 42.349243%, 49.01886%)" d="M 665.3125 448.511719 C 669.070312 444.75 671.1875 439.652344 671.1875 434.328125 C 671.1875 429.003906 669.070312 423.898438 665.3125 420.140625 L 526.511719 281.363281 C 522.75 277.597656 517.644531 275.484375 512.316406 275.484375 L 503.046875 275.484375 C 494.941406 275.484375 487.621094 280.375 484.515625 287.867188 C 481.410156 295.371094 483.128906 303.996094 488.859375 309.746094 L 613.472656 434.328125 L 488.859375 558.925781 C 483.121094 564.660156 481.40625 573.277344 484.515625 580.78125 C 487.621094 588.277344 494.941406 593.171875 503.046875 593.171875 L 512.316406 593.171875 C 517.644531 593.171875 522.75 591.058594 526.511719 587.289062 Z M 665.3125 448.511719 " fill-opacity="1" fill-rule="nonzero"/><path fill="rgb(49.01886%, 63.529968%, 66.268921%)" d="M 318.9375 287.867188 C 315.835938 280.375 308.515625 275.484375 300.40625 275.484375 L 186.890625 275.484375 C 181.5625 275.484375 176.464844 277.597656 172.691406 281.363281 L 33.894531 420.140625 C 30.136719 423.898438 28.019531 429.003906 28.019531 434.328125 C 28.019531 439.652344 30.136719 444.75 33.894531 448.511719 L 172.691406 587.289062 C 176.464844 591.058594 181.5625 593.171875 186.890625 593.171875 L 300.40625 593.171875 C 308.515625 593.171875 315.835938 588.277344 318.9375 580.78125 C 322.042969 573.277344 320.328125 564.660156 314.597656 558.925781 L 189.988281 434.328125 L 314.597656 309.746094 C 320.328125 303.996094 322.046875 295.371094 318.9375 287.867188 Z M 318.9375 287.867188 " fill-opacity="1" fill-rule="nonzero"/><path fill="rgb(36.079407%, 42.349243%, 49.01886%)" d="M 318.9375 580.78125 C 322.042969 573.277344 320.328125 564.660156 314.597656 558.925781 L 189.988281 434.328125 L 314.597656 309.746094 C 320.332031 303.996094 322.046875 295.371094 318.9375 287.867188 C 315.835938 280.375 308.515625 275.484375 300.40625 275.484375 L 291.136719 275.484375 C 285.8125 275.484375 280.710938 277.597656 276.941406 281.363281 L 138.140625 420.140625 C 134.382812 423.898438 132.269531 429.003906 132.269531 434.328125 C 132.269531 439.652344 134.382812 444.75 138.140625 448.511719 L 276.941406 587.289062 C 280.710938 591.058594 285.8125 593.171875 291.136719 593.171875 L 300.40625 593.171875 C 308.515625 593.171875 315.835938 588.277344 318.9375 580.78125 Z M 318.9375 580.78125 " fill-opacity="1" fill-rule="nonzero"/><path stroke-linecap="round" transform="matrix(5.95706, 0, 0, 5.956104, 3.36388, 32.291488)" fill="none" stroke-linejoin="round" d="M 129.879926 65.117924 L 106.579711 41.817904 C 105.948239 41.185674 105.091194 40.830865 104.196772 40.830865 L 85.141127 40.830865 C 83.779822 40.830865 82.550975 41.651977 82.030322 42.909877 C 81.509013 44.169745 81.79688 45.61784 82.758843 46.583236 L 103.678086 67.499934 L 82.758843 88.419255 C 81.796225 89.382028 81.507702 90.82881 82.030322 92.088678 C 82.550975 93.347235 83.779822 94.169002 85.141127 94.169002 L 104.196772 94.169002 C 105.091194 94.169002 105.948239 93.814193 106.579711 93.181307 L 129.879926 69.881288 C 130.510743 69.249714 130.866151 68.393843 130.866151 67.499934 C 130.866151 66.606024 130.510087 65.748841 129.879926 65.117924 Z M 129.879926 65.117924 " stroke="rgb(19.999695%, 21.179199%, 22.749329%)" stroke-width="3" stroke-opacity="1" stroke-miterlimit="10"/><path stroke-linecap="round" transform="matrix(5.95706, 0, 0, 5.956104, 3.36388, 32.291488)" fill="none" stroke-linejoin="round" d="M 108.670193 62.499811 L 87.75095 83.419132 " stroke="rgb(19.999695%, 21.179199%, 22.749329%)" stroke-width="3" stroke-opacity="1" stroke-miterlimit="10"/><path stroke-linecap="round" transform="matrix(5.95706, 0, 0, 5.956104, 3.36388, 32.291488)" fill="none" stroke-linejoin="round" d="M 52.974725 42.909877 C 52.454072 41.651977 51.225225 40.830865 49.86392 40.830865 L 30.808275 40.830865 C 29.913853 40.830865 29.058119 41.185674 28.42468 41.817904 L 5.125121 65.117924 C 4.494304 65.748841 4.138896 66.606024 4.138896 67.499934 C 4.138896 68.393843 4.494304 69.249714 5.125121 69.881288 L 28.42468 93.181307 C 29.058119 93.814193 29.913853 94.169002 30.808275 94.169002 L 49.86392 94.169002 C 51.225225 94.169002 52.454072 93.347235 52.974725 92.088678 C 53.496034 90.82881 53.208166 89.382028 52.246204 88.419255 L 31.328272 67.499934 L 52.246204 46.583236 C 53.208166 45.61784 53.49669 44.169745 52.974725 42.909877 Z M 52.974725 42.909877 " stroke="rgb(19.999695%, 21.179199%, 22.749329%)" stroke-width="3" stroke-opacity="1" stroke-miterlimit="10"/><path stroke-linecap="round" transform="matrix(5.95706, 0, 0, 5.956104, 3.36388, 32.291488)" fill="none" stroke-linejoin="round" d="M 26.328297 72.500056 L 47.246228 51.582702 " stroke="rgb(19.999695%, 21.179199%, 22.749329%)" stroke-width="3" stroke-opacity="1" stroke-miterlimit="10"/><path stroke-linecap="round" transform="matrix(5.95706, 0, 0, 5.956104, 3.36388, 32.291488)" fill="none" stroke-linejoin="round" d="M 57.040935 77.959266 L 77.958211 57.041257 " stroke="rgb(19.999695%, 21.179199%, 22.749329%)" stroke-width="3" stroke-opacity="1" stroke-miterlimit="10"/><path stroke-linecap="round" transform="matrix(5.95706, 0, 0, 5.956104, 3.36388, 32.291488)" fill="none" stroke-linejoin="round" d="M 101.400064 33.600888 L 103.788905 31.212319 " stroke="rgb(19.999695%, 21.179199%, 22.749329%)" stroke-width="3" stroke-opacity="1" stroke-miterlimit="10"/><path stroke-linecap="round" transform="matrix(5.95706, 0, 0, 5.956104, 3.36388, 32.291488)" fill="none" stroke-linejoin="round" d="M 108.190195 26.81229 L 108.438063 26.561759 " stroke="rgb(19.999695%, 21.179199%, 22.749329%)" stroke-width="3" stroke-opacity="1" stroke-miterlimit="10"/><path stroke-linecap="round" transform="matrix(5.95706, 0, 0, 5.956104, 3.36388, 32.291488)" fill="none" stroke-linejoin="round" d="M 111.680014 23.321255 L 111.927882 23.070724 " stroke="rgb(19.999695%, 21.179199%, 22.749329%)" stroke-width="3" stroke-opacity="1" stroke-miterlimit="10"/><path stroke-linecap="round" transform="matrix(5.95706, 0, 0, 5.956104, 3.36388, 32.291488)" fill="none" stroke-linejoin="round" d="M 115.169834 19.832843 L 115.419013 19.582968 " stroke="rgb(19.999695%, 21.179199%, 22.749329%)" stroke-width="3" stroke-opacity="1" stroke-miterlimit="10"/><path stroke-linecap="round" transform="matrix(5.95706, 0, 0, 5.956104, 3.36388, 32.291488)" fill="none" stroke-linejoin="round" d="M 33.599081 101.400291 L 31.21024 103.78886 " stroke="rgb(19.999695%, 21.179199%, 22.749329%)" stroke-width="3" stroke-opacity="1" stroke-miterlimit="10"/><path stroke-linecap="round" transform="matrix(5.95706, 0, 0, 5.956104, 3.36388, 32.291488)" fill="none" stroke-linejoin="round" d="M 26.80895 108.190201 L 26.561082 108.440075 " stroke="rgb(19.999695%, 21.179199%, 22.749329%)" stroke-width="3" stroke-opacity="1" stroke-miterlimit="10"/><path stroke-linecap="round" transform="matrix(5.95706, 0, 0, 5.956104, 3.36388, 32.291488)" fill="none" stroke-linejoin="round" d="M 23.319787 111.679924 L 23.071919 111.929799 " stroke="rgb(19.999695%, 21.179199%, 22.749329%)" stroke-width="3" stroke-opacity="1" stroke-miterlimit="10"/><path stroke-linecap="round" transform="matrix(5.95706, 0, 0, 5.956104, 3.36388, 32.291488)" fill="none" stroke-linejoin="round" d="M 19.831279 115.170303 L 19.582756 115.420178 " stroke="rgb(19.999695%, 21.179199%, 22.749329%)" stroke-width="3" stroke-opacity="1" stroke-miterlimit="10"/></svg>