<?xml version="1.0" encoding="UTF-8"?><svg xmlns="http://www.w3.org/2000/svg" xmlns:xlink="http://www.w3.org/1999/xlink" width="810" zoomAndPan="magnify" viewBox="0 0 810 809.999993" height="809.999993" preserveAspectRatio="xMidYMid meet" version="1.0"><defs><clipPath id="clip-0"><path d="M 20.257812 608 L 789.757812 608 L 789.757812 670 L 20.257812 670 Z M 20.257812 608 " clip-rule="nonzero"/></clipPath><clipPath id="clip-1"><path d="M 20.257812 559 L 789.757812 559 L 789.757812 646 L 20.257812 646 Z M 20.257812 559 " clip-rule="nonzero"/></clipPath><clipPath id="clip-2"><path d="M 20.257812 83 L 789.757812 83 L 789.757812 560 L 20.257812 560 Z M 20.257812 83 " clip-rule="nonzero"/></clipPath></defs><path fill="rgb(90.19928%, 91.369629%, 92.939758%)" d="M 56.902344 119.757812 L 81.332031 119.757812 L 81.332031 522.988281 L 56.902344 522.988281 Z M 56.902344 119.757812 " fill-opacity="1" fill-rule="nonzero"/><path fill="rgb(26.269531%, 29.019165%, 32.939148%)" d="M 81.332031 119.882812 L 753.117188 119.882812 L 753.117188 522.863281 L 81.332031 522.863281 Z M 81.332031 119.882812 " fill-opacity="1" fill-rule="nonzero"/><path fill="rgb(79.998779%, 81.959534%, 85.099792%)" d="M 423.332031 602.265625 C 423.332031 602.863281 423.300781 603.464844 423.242188 604.058594 C 423.183594 604.65625 423.09375 605.25 422.976562 605.839844 C 422.859375 606.425781 422.714844 607.007812 422.542969 607.582031 C 422.367188 608.15625 422.164062 608.722656 421.9375 609.277344 C 421.707031 609.832031 421.449219 610.371094 421.167969 610.902344 C 420.882812 611.429688 420.574219 611.945312 420.242188 612.445312 C 419.910156 612.941406 419.550781 613.425781 419.171875 613.886719 C 418.789062 614.351562 418.386719 614.796875 417.964844 615.222656 C 417.539062 615.644531 417.09375 616.046875 416.632812 616.429688 C 416.167969 616.808594 415.6875 617.167969 415.1875 617.5 C 414.6875 617.832031 414.175781 618.140625 413.644531 618.425781 C 413.117188 618.707031 412.574219 618.964844 412.019531 619.191406 C 411.464844 619.421875 410.902344 619.625 410.328125 619.796875 C 409.753906 619.972656 409.171875 620.117188 408.582031 620.234375 C 407.996094 620.351562 407.402344 620.441406 406.804688 620.5 C 406.207031 620.558594 405.609375 620.585938 405.007812 620.585938 C 404.410156 620.585938 403.808594 620.558594 403.214844 620.5 C 402.617188 620.441406 402.023438 620.351562 401.433594 620.234375 C 400.847656 620.117188 400.265625 619.972656 399.691406 619.796875 C 399.117188 619.625 398.550781 619.421875 397.996094 619.191406 C 397.441406 618.964844 396.902344 618.707031 396.371094 618.425781 C 395.84375 618.140625 395.328125 617.832031 394.828125 617.5 C 394.332031 617.167969 393.851562 616.808594 393.386719 616.429688 C 392.921875 616.046875 392.476562 615.644531 392.054688 615.222656 C 391.628906 614.796875 391.226562 614.351562 390.847656 613.886719 C 390.464844 613.425781 390.109375 612.941406 389.773438 612.445312 C 389.441406 611.945312 389.132812 611.429688 388.851562 610.902344 C 388.566406 610.371094 388.3125 609.832031 388.082031 609.277344 C 387.851562 608.722656 387.652344 608.15625 387.476562 607.582031 C 387.300781 607.007812 387.15625 606.425781 387.039062 605.839844 C 386.921875 605.25 386.835938 604.65625 386.777344 604.058594 C 386.71875 603.464844 386.6875 602.863281 386.6875 602.265625 C 386.6875 601.664062 386.71875 601.066406 386.777344 600.46875 C 386.835938 599.871094 386.921875 599.277344 387.039062 598.691406 C 387.15625 598.101562 387.300781 597.519531 387.476562 596.945312 C 387.652344 596.371094 387.851562 595.808594 388.082031 595.253906 C 388.3125 594.699219 388.566406 594.15625 388.851562 593.628906 C 389.132812 593.097656 389.441406 592.582031 389.773438 592.085938 C 390.109375 591.585938 390.464844 591.105469 390.847656 590.640625 C 391.226562 590.175781 391.628906 589.734375 392.054688 589.308594 C 392.476562 588.882812 392.921875 588.480469 393.386719 588.101562 C 393.851562 587.71875 394.332031 587.363281 394.828125 587.03125 C 395.328125 586.695312 395.84375 586.386719 396.371094 586.105469 C 396.902344 585.820312 397.441406 585.566406 397.996094 585.335938 C 398.550781 585.105469 399.117188 584.90625 399.691406 584.730469 C 400.265625 584.554688 400.847656 584.410156 401.433594 584.292969 C 402.023438 584.175781 402.617188 584.089844 403.214844 584.03125 C 403.808594 583.972656 404.410156 583.941406 405.007812 583.941406 C 405.609375 583.941406 406.207031 583.972656 406.804688 584.03125 C 407.402344 584.089844 407.996094 584.175781 408.582031 584.292969 C 409.171875 584.410156 409.753906 584.554688 410.328125 584.730469 C 410.902344 584.90625 411.464844 585.105469 412.019531 585.335938 C 412.574219 585.566406 413.117188 585.820312 413.644531 586.105469 C 414.175781 586.386719 414.6875 586.695312 415.1875 587.03125 C 415.6875 587.363281 416.167969 587.71875 416.632812 588.101562 C 417.09375 588.480469 417.539062 588.882812 417.964844 589.308594 C 418.386719 589.734375 418.789062 590.175781 419.171875 590.640625 C 419.550781 591.105469 419.910156 591.585938 420.242188 592.085938 C 420.574219 592.582031 420.882812 593.097656 421.167969 593.628906 C 421.449219 594.15625 421.707031 594.699219 421.9375 595.253906 C 422.164062 595.808594 422.367188 596.371094 422.542969 596.945312 C 422.714844 597.519531 422.859375 598.101562 422.976562 598.691406 C 423.09375 599.277344 423.183594 599.871094 423.242188 600.46875 C 423.300781 601.066406 423.332031 601.664062 423.332031 602.265625 Z M 423.332031 602.265625 " fill-opacity="1" fill-rule="nonzero"/><g clip-path="url(#clip-0)"><path fill="rgb(79.998779%, 81.959534%, 85.099792%)" d="M 789.757812 608.617188 L 789.757812 632.804688 C 789.757812 653.433594 773.746094 669.449219 753.117188 669.449219 C 744.445312 669.449219 623.277344 669.449219 484.28125 669.449219 C 432.246094 669.449219 377.757812 669.449219 325.738281 669.449219 C 186.738281 669.449219 65.574219 669.449219 56.902344 669.449219 C 36.273438 669.449219 20.257812 653.433594 20.257812 632.804688 L 20.257812 608.617188 C 20.257812 628.773438 36.75 645.261719 56.902344 645.261719 L 753.117188 645.261719 C 773.269531 645.261719 789.757812 628.773438 789.757812 608.617188 Z M 789.757812 608.617188 " fill-opacity="1" fill-rule="nonzero"/></g><path fill="rgb(79.998779%, 81.959534%, 85.099792%)" d="M 484.28125 669.449219 L 508.707031 779.386719 L 301.308594 779.386719 L 325.738281 669.449219 C 377.769531 669.449219 432.246094 669.449219 484.28125 669.449219 Z M 484.28125 669.449219 " fill-opacity="1" fill-rule="nonzero"/><g clip-path="url(#clip-1)"><path fill="rgb(90.19928%, 91.369629%, 92.939758%)" d="M 405.007812 559.511719 L 20.257812 559.511719 L 20.257812 608.617188 C 20.257812 628.773438 36.75 645.261719 56.902344 645.261719 L 753.117188 645.261719 C 773.269531 645.261719 789.757812 628.773438 789.757812 608.617188 L 789.757812 559.511719 Z M 405.007812 620.585938 C 394.871094 620.585938 386.6875 612.402344 386.6875 602.265625 C 386.6875 592.125 394.871094 583.941406 405.007812 583.941406 C 415.148438 583.941406 423.332031 592.125 423.332031 602.265625 C 423.332031 612.402344 415.148438 620.585938 405.007812 620.585938 Z M 405.007812 620.585938 " fill-opacity="1" fill-rule="nonzero"/></g><g clip-path="url(#clip-2)"><path fill="rgb(39.608765%, 42.749023%, 47.059631%)" d="M 789.757812 120.003906 L 789.757812 559.511719 L 20.257812 559.511719 L 20.257812 120.003906 C 20.257812 99.859375 36.75 83.355469 56.902344 83.355469 L 753.117188 83.355469 C 773.269531 83.355469 789.757812 99.847656 789.757812 120.003906 Z M 753.117188 522.863281 L 753.117188 119.757812 L 56.902344 119.757812 L 56.902344 522.863281 Z M 753.117188 522.863281 " fill-opacity="1" fill-rule="nonzero"/></g><path fill="rgb(66.668701%, 69.799805%, 74.119568%)" d="M 487.003906 681.664062 L 484.28125 669.449219 C 432.246094 669.449219 377.757812 669.449219 325.738281 669.449219 L 323.015625 681.664062 Z M 487.003906 681.664062 " fill-opacity="1" fill-rule="nonzero"/><path fill="rgb(90.19928%, 91.369629%, 92.939758%)" d="M 527.152344 785.421875 L 282.867188 785.421875 C 279.496094 785.421875 276.757812 782.683594 276.757812 779.3125 C 276.757812 775.941406 279.496094 773.207031 282.867188 773.207031 L 527.152344 773.207031 C 530.523438 773.207031 533.257812 775.941406 533.257812 779.3125 C 533.257812 782.683594 530.523438 785.421875 527.152344 785.421875 Z M 527.152344 785.421875 " fill-opacity="1" fill-rule="nonzero"/><path fill="rgb(100%, 80.778503%, 32.939148%)" d="M 166.832031 162.636719 L 117.972656 162.636719 C 114.601562 162.636719 111.867188 159.898438 111.867188 156.527344 C 111.867188 153.15625 114.601562 150.417969 117.972656 150.417969 L 166.832031 150.417969 C 170.203125 150.417969 172.9375 153.15625 172.9375 156.527344 C 172.9375 159.898438 170.203125 162.636719 166.832031 162.636719 Z M 166.832031 162.636719 " fill-opacity="1" fill-rule="nonzero"/><path fill="rgb(67.449951%, 57.249451%, 92.549133%)" d="M 386.6875 199.28125 L 215.6875 199.28125 C 212.316406 199.28125 209.582031 196.542969 209.582031 193.171875 C 209.582031 189.800781 212.316406 187.066406 215.6875 187.066406 L 386.6875 187.066406 C 390.058594 187.066406 392.792969 189.800781 392.792969 193.171875 C 392.792969 196.542969 390.058594 199.28125 386.6875 199.28125 Z M 386.6875 199.28125 " fill-opacity="1" fill-rule="nonzero"/><path fill="rgb(67.449951%, 57.249451%, 92.549133%)" d="M 191.257812 199.28125 L 130.1875 199.28125 C 126.816406 199.28125 124.082031 196.542969 124.082031 193.171875 C 124.082031 189.800781 126.816406 187.066406 130.1875 187.066406 L 191.257812 187.066406 C 194.628906 187.066406 197.367188 189.800781 197.367188 193.171875 C 197.367188 196.542969 194.628906 199.28125 191.257812 199.28125 Z M 191.257812 199.28125 " fill-opacity="1" fill-rule="nonzero"/><path fill="rgb(36.468506%, 61.178589%, 92.549133%)" d="M 533.257812 235.925781 L 374.472656 235.925781 C 371.101562 235.925781 368.367188 233.191406 368.367188 229.820312 C 368.367188 226.449219 371.101562 223.710938 374.472656 223.710938 L 533.257812 223.710938 C 536.628906 223.710938 539.367188 226.449219 539.367188 229.820312 C 539.367188 233.191406 536.628906 235.925781 533.257812 235.925781 Z M 533.257812 235.925781 " fill-opacity="1" fill-rule="nonzero"/><path fill="rgb(36.468506%, 61.178589%, 92.549133%)" d="M 606.542969 235.925781 L 557.6875 235.925781 C 554.316406 235.925781 551.582031 233.191406 551.582031 229.820312 C 551.582031 226.449219 554.316406 223.710938 557.6875 223.710938 L 606.542969 223.710938 C 609.914062 223.710938 612.652344 226.449219 612.652344 229.820312 C 612.652344 233.191406 609.914062 235.925781 606.542969 235.925781 Z M 606.542969 235.925781 " fill-opacity="1" fill-rule="nonzero"/><path fill="rgb(36.468506%, 61.178589%, 92.549133%)" d="M 350.042969 235.925781 L 142.402344 235.925781 C 139.03125 235.925781 136.292969 233.191406 136.292969 229.820312 C 136.292969 226.449219 139.03125 223.710938 142.402344 223.710938 L 350.042969 223.710938 C 353.414062 223.710938 356.152344 226.449219 356.152344 229.820312 C 356.152344 233.191406 353.414062 235.925781 350.042969 235.925781 Z M 350.042969 235.925781 " fill-opacity="1" fill-rule="nonzero"/><path fill="rgb(92.939758%, 33.329773%, 39.608765%)" d="M 203.496094 309.21875 L 166.855469 309.21875 C 163.484375 309.21875 160.746094 306.484375 160.746094 303.109375 C 160.746094 299.738281 163.484375 297.003906 166.855469 297.003906 L 203.496094 297.003906 C 206.867188 297.003906 209.605469 299.738281 209.605469 303.109375 C 209.605469 306.484375 206.867188 309.21875 203.496094 309.21875 Z M 203.496094 309.21875 " fill-opacity="1" fill-rule="nonzero"/><path fill="rgb(92.939758%, 33.329773%, 39.608765%)" d="M 409.234375 309.21875 L 227.925781 309.21875 C 224.554688 309.21875 221.820312 306.484375 221.820312 303.109375 C 221.820312 299.738281 224.554688 297.003906 227.925781 297.003906 L 409.234375 297.003906 C 412.605469 297.003906 415.34375 299.738281 415.34375 303.109375 C 415.34375 306.484375 412.605469 309.21875 409.234375 309.21875 Z M 409.234375 309.21875 " fill-opacity="1" fill-rule="nonzero"/><path fill="rgb(62.748718%, 83.139038%, 40.779114%)" d="M 435.542969 272.574219 L 154.617188 272.574219 C 151.246094 272.574219 148.507812 269.835938 148.507812 266.464844 C 148.507812 263.09375 151.246094 260.359375 154.617188 260.359375 L 435.542969 260.359375 C 438.914062 260.359375 441.652344 263.09375 441.652344 266.464844 C 441.652344 269.835938 438.914062 272.574219 435.542969 272.574219 Z M 435.542969 272.574219 " fill-opacity="1" fill-rule="nonzero"/><path fill="rgb(30.979919%, 75.689697%, 91.369629%)" d="M 447.785156 345.863281 L 337.855469 345.863281 C 334.484375 345.863281 331.746094 343.128906 331.746094 339.757812 C 331.746094 336.386719 334.484375 333.648438 337.855469 333.648438 L 447.785156 333.648438 C 451.15625 333.648438 453.890625 336.386719 453.890625 339.757812 C 453.890625 343.128906 451.15625 345.863281 447.785156 345.863281 Z M 447.785156 345.863281 " fill-opacity="1" fill-rule="nonzero"/><path fill="rgb(62.748718%, 83.139038%, 40.779114%)" d="M 362.285156 382.511719 L 154.640625 382.511719 C 151.269531 382.511719 148.535156 379.773438 148.535156 376.402344 C 148.535156 373.03125 151.269531 370.296875 154.640625 370.296875 L 362.285156 370.296875 C 365.65625 370.296875 368.390625 373.03125 368.390625 376.402344 C 368.390625 379.773438 365.65625 382.511719 362.285156 382.511719 Z M 362.285156 382.511719 " fill-opacity="1" fill-rule="nonzero"/><path fill="rgb(67.449951%, 57.249451%, 92.549133%)" d="M 227.902344 455.800781 L 130.1875 455.800781 C 126.816406 455.800781 124.082031 453.066406 124.082031 449.695312 C 124.082031 446.324219 126.816406 443.585938 130.1875 443.585938 L 227.902344 443.585938 C 231.273438 443.585938 234.007812 446.324219 234.007812 449.695312 C 234.007812 453.066406 231.273438 455.800781 227.902344 455.800781 Z M 227.902344 455.800781 " fill-opacity="1" fill-rule="nonzero"/><path fill="rgb(36.468506%, 61.178589%, 92.549133%)" d="M 472.1875 419.15625 L 301.1875 419.15625 C 297.816406 419.15625 295.082031 416.421875 295.082031 413.050781 C 295.082031 409.675781 297.816406 406.941406 301.1875 406.941406 L 472.1875 406.941406 C 475.558594 406.941406 478.292969 409.675781 478.292969 413.050781 C 478.292969 416.421875 475.558594 419.15625 472.1875 419.15625 Z M 472.1875 419.15625 " fill-opacity="1" fill-rule="nonzero"/><path fill="rgb(36.468506%, 61.178589%, 92.549133%)" d="M 508.832031 419.15625 L 496.617188 419.15625 C 493.246094 419.15625 490.507812 416.421875 490.507812 413.050781 C 490.507812 409.675781 493.246094 406.941406 496.617188 406.941406 L 508.832031 406.941406 C 512.203125 406.941406 514.9375 409.675781 514.9375 413.050781 C 514.9375 416.421875 512.203125 419.15625 508.832031 419.15625 Z M 508.832031 419.15625 " fill-opacity="1" fill-rule="nonzero"/><path fill="rgb(36.468506%, 61.178589%, 92.549133%)" d="M 276.757812 419.15625 L 142.402344 419.15625 C 139.03125 419.15625 136.292969 416.421875 136.292969 413.050781 C 136.292969 409.675781 139.03125 406.941406 142.402344 406.941406 L 276.757812 406.941406 C 280.128906 406.941406 282.867188 409.675781 282.867188 413.050781 C 282.867188 416.421875 280.128906 419.15625 276.757812 419.15625 Z M 276.757812 419.15625 " fill-opacity="1" fill-rule="nonzero"/><path fill="rgb(100%, 80.778503%, 32.939148%)" d="M 166.832031 492.449219 L 117.972656 492.449219 C 114.601562 492.449219 111.867188 489.710938 111.867188 486.339844 C 111.867188 482.96875 114.601562 480.234375 117.972656 480.234375 L 166.832031 480.234375 C 170.203125 480.234375 172.9375 482.96875 172.9375 486.339844 C 172.9375 489.710938 170.203125 492.449219 166.832031 492.449219 Z M 166.832031 492.449219 " fill-opacity="1" fill-rule="nonzero"/><path fill="rgb(62.748718%, 83.139038%, 40.779114%)" d="M 459.996094 382.511719 L 386.710938 382.511719 C 383.339844 382.511719 380.605469 379.773438 380.605469 376.402344 C 380.605469 373.03125 383.339844 370.296875 386.710938 370.296875 L 459.996094 370.296875 C 463.367188 370.296875 466.105469 373.03125 466.105469 376.402344 C 466.105469 379.773438 463.367188 382.511719 459.996094 382.511719 Z M 459.996094 382.511719 " fill-opacity="1" fill-rule="nonzero"/><path fill="rgb(30.979919%, 75.689697%, 91.369629%)" d="M 557.710938 345.863281 L 472.210938 345.863281 C 468.839844 345.863281 466.105469 343.128906 466.105469 339.757812 C 466.105469 336.386719 468.839844 333.648438 472.210938 333.648438 L 557.710938 333.648438 C 561.082031 333.648438 563.820312 336.386719 563.820312 339.757812 C 563.820312 343.128906 561.082031 345.863281 557.710938 345.863281 Z M 557.710938 345.863281 " fill-opacity="1" fill-rule="nonzero"/><path fill="rgb(30.979919%, 75.689697%, 91.369629%)" d="M 313.425781 345.863281 L 166.855469 345.863281 C 163.484375 345.863281 160.746094 343.128906 160.746094 339.757812 C 160.746094 336.386719 163.484375 333.648438 166.855469 333.648438 L 313.425781 333.648438 C 316.796875 333.648438 319.535156 336.386719 319.535156 339.757812 C 319.535156 343.128906 316.796875 345.863281 313.425781 345.863281 Z M 313.425781 345.863281 " fill-opacity="1" fill-rule="nonzero"/><path fill="rgb(79.998779%, 81.959534%, 85.099792%)" d="M 63.007812 339.695312 C 63.007812 336.324219 60.273438 333.589844 56.902344 333.589844 L 56.902344 345.804688 C 60.273438 345.804688 63.007812 343.066406 63.007812 339.695312 Z M 63.007812 339.695312 " fill-opacity="1" fill-rule="nonzero"/><path fill="rgb(79.998779%, 81.959534%, 85.099792%)" d="M 63.007812 376.34375 C 63.007812 372.96875 60.273438 370.234375 56.902344 370.234375 L 56.902344 382.449219 C 60.273438 382.449219 63.007812 379.714844 63.007812 376.34375 Z M 63.007812 376.34375 " fill-opacity="1" fill-rule="nonzero"/><path fill="rgb(79.998779%, 81.959534%, 85.099792%)" d="M 63.007812 412.988281 C 63.007812 409.617188 60.273438 406.878906 56.902344 406.878906 L 56.902344 419.09375 C 60.273438 419.09375 63.007812 416.359375 63.007812 412.988281 Z M 63.007812 412.988281 " fill-opacity="1" fill-rule="nonzero"/><path fill="rgb(79.998779%, 81.959534%, 85.099792%)" d="M 63.007812 449.632812 C 63.007812 446.261719 60.273438 443.527344 56.902344 443.527344 L 56.902344 455.742188 C 60.273438 455.742188 63.007812 453.003906 63.007812 449.632812 Z M 63.007812 449.632812 " fill-opacity="1" fill-rule="nonzero"/><path fill="rgb(79.998779%, 81.959534%, 85.099792%)" d="M 63.007812 486.28125 C 63.007812 482.910156 60.273438 480.171875 56.902344 480.171875 L 56.902344 492.386719 C 60.273438 492.386719 63.007812 489.652344 63.007812 486.28125 Z M 63.007812 486.28125 " fill-opacity="1" fill-rule="nonzero"/><path fill="rgb(79.998779%, 81.959534%, 85.099792%)" d="M 63.007812 303.050781 C 63.007812 299.679688 60.273438 296.941406 56.902344 296.941406 L 56.902344 309.15625 C 60.273438 309.15625 63.007812 306.421875 63.007812 303.050781 Z M 63.007812 303.050781 " fill-opacity="1" fill-rule="nonzero"/><path fill="rgb(79.998779%, 81.959534%, 85.099792%)" d="M 63.007812 266.402344 C 63.007812 263.03125 60.273438 260.296875 56.902344 260.296875 L 56.902344 272.511719 C 60.273438 272.511719 63.007812 269.777344 63.007812 266.402344 Z M 63.007812 266.402344 " fill-opacity="1" fill-rule="nonzero"/><path fill="rgb(79.998779%, 81.959534%, 85.099792%)" d="M 63.007812 229.757812 C 63.007812 226.386719 60.273438 223.652344 56.902344 223.652344 L 56.902344 235.867188 C 60.273438 235.867188 63.007812 233.128906 63.007812 229.757812 Z M 63.007812 229.757812 " fill-opacity="1" fill-rule="nonzero"/><path fill="rgb(79.998779%, 81.959534%, 85.099792%)" d="M 63.007812 193.113281 C 63.007812 189.742188 60.273438 187.003906 56.902344 187.003906 L 56.902344 199.21875 C 60.273438 199.21875 63.007812 196.484375 63.007812 193.113281 Z M 63.007812 193.113281 " fill-opacity="1" fill-rule="nonzero"/><path fill="rgb(79.998779%, 81.959534%, 85.099792%)" d="M 63.007812 156.464844 C 63.007812 153.09375 60.273438 150.359375 56.902344 150.359375 L 56.902344 162.574219 C 60.273438 162.574219 63.007812 159.835938 63.007812 156.464844 Z M 63.007812 156.464844 " fill-opacity="1" fill-rule="nonzero"/></svg>