<?xml version="1.0" encoding="UTF-8"?><svg xmlns="http://www.w3.org/2000/svg" xmlns:xlink="http://www.w3.org/1999/xlink" width="810" zoomAndPan="magnify" viewBox="0 0 810 809.999993" height="809.999993" preserveAspectRatio="xMidYMid meet" version="1.0"><defs><clipPath id="clip-0"><path d="M 34.59375 42 L 775.59375 42 L 775.59375 765 L 34.59375 765 Z M 34.59375 42 " clip-rule="nonzero"/></clipPath></defs><g clip-path="url(#clip-0)"><path fill="rgb(10.198975%, 13.328552%, 21.958923%)" d="M 405.09375 42.261719 C 200.496094 42.261719 34.59375 208.097656 34.59375 412.667969 C 34.59375 576.34375 140.75 715.1875 287.964844 764.148438 C 306.480469 767.59375 313.28125 756.105469 313.28125 746.324219 C 313.28125 737.496094 312.9375 708.328125 312.777344 677.363281 C 209.703125 699.792969 187.953125 633.667969 187.953125 633.667969 C 171.097656 590.839844 146.8125 579.46875 146.8125 579.46875 C 113.199219 556.492188 149.347656 556.953125 149.347656 556.953125 C 186.550781 559.558594 206.140625 595.121094 206.140625 595.121094 C 239.1875 651.753906 292.820312 635.375 313.960938 625.914062 C 317.285156 601.980469 326.882812 585.632812 337.476562 576.371094 C 255.191406 567.023438 168.679688 535.25 168.679688 393.339844 C 168.679688 352.882812 183.152344 319.839844 206.855469 293.902344 C 203.007812 284.570312 190.328125 246.898438 210.441406 195.875 C 210.441406 195.875 241.554688 185.921875 312.359375 233.847656 C 341.902344 225.640625 373.597656 221.523438 405.09375 221.382812 C 436.585938 221.523438 468.308594 225.640625 497.917969 233.847656 C 568.632812 185.921875 599.691406 195.875 599.691406 195.875 C 619.867188 246.898438 607.1875 284.570312 603.339844 293.902344 C 627.074219 319.839844 641.460938 352.882812 641.460938 393.339844 C 641.460938 535.597656 554.796875 566.90625 472.273438 576.082031 C 485.558594 587.570312 497.425781 610.113281 497.425781 644.691406 C 497.425781 694.234375 496.992188 734.140625 496.992188 746.324219 C 496.992188 756.191406 503.652344 767.738281 522.4375 764.089844 C 669.566406 715.070312 775.59375 576.285156 775.59375 412.667969 C 775.59375 208.097656 609.707031 42.261719 405.09375 42.261719 Z M 173.359375 569.917969 C 172.542969 571.769531 169.644531 572.320312 167.007812 571.046875 C 164.320312 569.832031 162.8125 567.34375 163.683594 565.488281 C 164.476562 563.582031 167.382812 563.058594 170.0625 564.332031 C 172.757812 565.546875 174.289062 568.066406 173.359375 569.917969 Z M 191.582031 586.179688 C 189.8125 587.800781 186.359375 587.050781 184.015625 584.472656 C 181.59375 581.867188 181.140625 578.425781 182.929688 576.777344 C 184.753906 575.125 188.101562 575.90625 190.53125 578.484375 C 192.957031 581.085938 193.429688 584.53125 191.582031 586.179688 Z M 204.085938 606.988281 C 201.816406 608.550781 198.105469 607.074219 195.808594 603.773438 C 193.539062 600.476562 193.539062 596.539062 195.859375 594.949219 C 198.160156 593.355469 201.816406 594.804688 204.140625 598.074219 C 206.402344 601.402344 206.402344 605.367188 204.085938 606.988281 Z M 225.230469 631.0625 C 223.199219 633.292969 218.871094 632.714844 215.707031 629.644531 C 212.464844 626.664062 211.566406 622.410156 213.605469 620.183594 C 215.660156 617.953125 220.007812 618.5625 223.199219 621.601562 C 226.414062 624.582031 227.398438 628.863281 225.230469 631.0625 Z M 252.558594 639.195312 C 251.660156 642.089844 247.496094 643.421875 243.300781 642.175781 C 239.109375 640.929688 236.367188 637.515625 237.210938 634.59375 C 238.082031 631.671875 242.269531 630.28125 246.496094 631.613281 C 250.679688 632.886719 253.429688 636.242188 252.558594 639.195312 Z M 283.65625 642.640625 C 283.761719 645.707031 280.203125 648.222656 275.800781 648.28125 C 271.367188 648.398438 267.785156 645.910156 267.734375 642.898438 C 267.734375 639.832031 271.214844 637.3125 275.644531 637.257812 C 280.050781 637.167969 283.65625 639.601562 283.65625 642.640625 Z M 314.210938 641.480469 C 314.734375 644.460938 311.675781 647.527344 307.300781 648.339844 C 303 649.121094 299.019531 647.269531 298.472656 644.316406 C 297.9375 641.277344 301.054688 638.210938 305.347656 637.429688 C 309.730469 636.648438 313.652344 638.441406 314.210938 641.480469 Z M 314.210938 641.480469 " fill-opacity="1" fill-rule="nonzero"/></g></svg>