<?xml version="1.0" encoding="UTF-8"?><svg xmlns="http://www.w3.org/2000/svg" xmlns:xlink="http://www.w3.org/1999/xlink" width="810" zoomAndPan="magnify" viewBox="0 0 810 809.999993" height="809.999993" preserveAspectRatio="xMidYMid meet" version="1.0"><defs><clipPath id="clip-0"><path d="M 23.707031 24 L 786.457031 24 L 786.457031 786.457031 L 23.707031 786.457031 Z M 23.707031 24 " clip-rule="nonzero"/></clipPath></defs><g clip-path="url(#clip-0)"><path fill="rgb(10.198975%, 13.328552%, 21.958923%)" d="M 594.710938 24.011719 L 214.847656 24.011719 C 109.601562 24.011719 23.707031 109.902344 23.707031 215.152344 L 23.707031 595.617188 C 23.707031 700.261719 109.601562 786.15625 214.847656 786.15625 L 595.316406 786.15625 C 700.566406 786.15625 786.457031 700.261719 786.457031 595.015625 L 786.457031 215.152344 C 785.851562 109.902344 699.960938 24.011719 594.710938 24.011719 Z M 277.753906 640.984375 L 168.878906 640.984375 L 168.878906 326.449219 L 277.753906 326.449219 Z M 222.710938 278.058594 C 191.863281 278.058594 167.0625 253.257812 167.0625 222.410156 C 167.0625 191.5625 191.863281 166.761719 222.710938 166.761719 C 253.5625 166.761719 278.359375 191.5625 278.359375 222.410156 C 277.753906 253.257812 252.957031 278.058594 222.710938 278.058594 Z M 640.683594 640.984375 L 549.949219 640.984375 L 549.949219 488.554688 C 549.949219 451.65625 545.113281 404.476562 494.90625 404.476562 C 443.492188 404.476562 435.023438 444.398438 435.023438 486.136719 L 435.023438 640.984375 L 344.292969 640.984375 L 344.292969 326.449219 L 428.976562 326.449219 L 428.976562 368.789062 L 431.394531 368.789062 C 444.703125 344.59375 475.550781 325.84375 523.941406 325.84375 C 623.746094 325.84375 641.285156 383.308594 641.285156 468.59375 L 641.285156 640.984375 Z M 640.683594 640.984375 " fill-opacity="1" fill-rule="nonzero"/></g></svg>