<?xml version="1.0" encoding="UTF-8"?><svg xmlns="http://www.w3.org/2000/svg" xmlns:xlink="http://www.w3.org/1999/xlink" width="810" zoomAndPan="magnify" viewBox="0 0 810 809.999993" height="809.999993" preserveAspectRatio="xMidYMid meet" version="1.0"><defs><clipPath id="clip-0"><path d="M 10.089844 129 L 799.839844 129 L 799.839844 728.738281 L 10.089844 728.738281 Z M 10.089844 129 " clip-rule="nonzero"/></clipPath></defs><g clip-path="url(#clip-0)"><path fill="rgb(10.198975%, 13.328552%, 21.958923%)" d="M 432.410156 425.460938 C 416.773438 439.316406 393.1875 439.316406 377.554688 425.46875 L 109.039062 187.445312 L 700.921875 187.445312 Z M 537.148438 447.722656 L 497.160156 490.351562 L 688.9375 670.15625 L 118.84375 670.15625 L 300.871094 489.613281 L 259.707031 448.121094 L 68.582031 637.695312 L 68.582031 229.679688 L 338.761719 469.183594 C 357.019531 485.375 380.539062 494.285156 404.980469 494.285156 C 429.425781 494.285156 452.9375 485.375 471.195312 469.183594 L 741.394531 229.667969 L 741.394531 639.214844 Z M 712.554688 129.003906 L 97.40625 129.003906 C 49.273438 129.003906 10.121094 168.15625 10.121094 216.269531 L 10.121094 641.339844 C 10.121094 689.449219 49.273438 728.59375 97.40625 728.59375 L 712.554688 728.59375 C 760.691406 728.59375 799.851562 689.449219 799.851562 641.339844 L 799.851562 216.269531 C 799.851562 168.15625 760.691406 129.003906 712.554688 129.003906 " fill-opacity="1" fill-rule="nonzero"/></g></svg>